<svg xmlns="http://www.w3.org/2000/svg" viewBox="0 0 1600 800" role="img" aria-label="Abstract European mountain landscape">
  <rect width="1600" height="800" fill="#89afb0"/>
  <path fill="#d9d1bd" opacity=".88" d="M0 154c174-61 295-44 416 22 111 61 226 64 369 10 138-52 268-46 380 4 110 49 253 42 435-29v291H0z"/>
  <path fill="#75858b" d="M0 470 220 304l143 91 158-177 205 234 171-137 214 181 191-235 298 228v311H0z"/>
  <path fill="#a7b09a" d="M0 519c151-50 288-48 414 7 166 73 319 74 481 5 160-68 315-61 465 21 65 36 145 55 240 57v191H0z"/>
  <path fill="#6d825f" d="M0 627c219-75 430-60 633 46 160 83 320 82 480-2 149-78 311-86 487-25v154H0z"/>
  <path fill="#b27b4d" opacity=".83" d="m1115 645 106-79 54 67 62-44 121 102-85 109h-259z"/>
  <path fill="#f4efe4" opacity=".54" d="M338 112c80-33 147-18 203 45 74-52 142-51 204 4-22 50-89 74-202 72-115-2-183-42-205-121z"/>
</svg>
