<svg xmlns="http://www.w3.org/2000/svg" viewBox="0 0 1200 560" role="img" aria-label="MidMarketBench product overview">
  <defs>
    <linearGradient id="sky" x1="0" x2="1" y1="0" y2="1">
      <stop offset="0%" stop-color="#eef4ef" />
      <stop offset="55%" stop-color="#dfe9e4" />
      <stop offset="100%" stop-color="#f6efe4" />
    </linearGradient>
    <style>
      .title {
        font:
          800 58px Inter,
          ui-sans-serif,
          system-ui,
          -apple-system,
          BlinkMacSystemFont,
          "Segoe UI",
          sans-serif;
        fill: #17201d;
      }
      .subtitle {
        font:
          500 24px Inter,
          ui-sans-serif,
          system-ui,
          sans-serif;
        fill: #40504a;
      }
      .label {
        font:
          700 13px Inter,
          ui-sans-serif,
          system-ui,
          sans-serif;
        letter-spacing: 0.08em;
        text-transform: uppercase;
        fill: #6d825f;
      }
      .copy {
        font:
          500 18px Inter,
          ui-sans-serif,
          system-ui,
          sans-serif;
        fill: #33413b;
      }
      .small {
        font:
          500 14px Inter,
          ui-sans-serif,
          system-ui,
          sans-serif;
        fill: #5f6d66;
      }
      .mono {
        font:
          700 18px "SFMono-Regular",
          Consolas,
          monospace;
        fill: #17201d;
      }
      .score {
        font:
          800 28px Inter,
          ui-sans-serif,
          system-ui,
          sans-serif;
        fill: #17201d;
      }
    </style>
  </defs>
  <rect width="1200" height="560" rx="32" fill="url(#sky)" />
  <path
    d="M0 348 C150 294 259 310 374 354 C489 398 622 395 756 343 C889 291 1017 294 1200 362 L1200 560 L0 560 Z"
    fill="#9fb29a"
    opacity=".6"
  />
  <path
    d="M0 426 C160 378 292 382 430 438 C586 502 735 492 884 429 C1004 379 1092 381 1200 420 L1200 560 L0 560 Z"
    fill="#6d825f"
    opacity=".55"
  />
  <g transform="translate(72 78)">
    <text class="label" x="0" y="0">MidMarketBench</text>
    <text class="title" x="0" y="72">Private-market AI,</text>
    <text class="title" x="0" y="136">scored like work.</text>
    <text class="subtitle" x="0" y="190">Tests whether frontier models can produce useful</text>
    <text class="subtitle" x="0" y="224">European lower-mid-market diligence work.</text>
    <g transform="translate(0 280)">
      <rect width="160" height="78" rx="16" fill="#ffffff" opacity=".82" />
      <text class="label" x="22" y="28">Models</text>
      <text class="score" x="22" y="60">12</text>
    </g>
    <g transform="translate(180 280)">
      <rect width="206" height="78" rx="16" fill="#ffffff" opacity=".82" />
      <text class="label" x="22" y="28">Dimensions</text>
      <text class="score" x="22" y="60">8 weighted</text>
    </g>
    <g transform="translate(406 280)">
      <rect width="190" height="78" rx="16" fill="#ffffff" opacity=".82" />
      <text class="label" x="22" y="28">Status</text>
      <text class="score" x="22" y="60">Synthetic</text>
    </g>
  </g>
  <rect x="708" y="88" width="430" height="404" rx="28" fill="#26322f" opacity=".13" />
  <g transform="translate(692 70)">
    <rect width="430" height="404" rx="28" fill="#fbfcf9" />
    <text class="label" x="34" y="48">Synthetic standings</text>
    <line x1="34" x2="396" y1="72" y2="72" stroke="#d3ddd5" stroke-width="2" />
    <g transform="translate(34 102)">
      <text class="mono" x="0" y="0">1</text>
      <text class="copy" x="42" y="0">GPT-5.5</text>
      <text class="score" x="314" y="4">83.9</text>
      <rect x="42" y="18" width="300" height="8" rx="4" fill="#e4ebe4" />
      <rect x="42" y="18" width="252" height="8" rx="4" fill="#6d825f" />
    </g>
    <g transform="translate(34 168)">
      <text class="mono" x="0" y="0">2</text>
      <text class="copy" x="42" y="0">Claude Opus 4.8</text>
      <text class="score" x="314" y="4">82.8</text>
      <rect x="42" y="18" width="300" height="8" rx="4" fill="#e4ebe4" />
      <rect x="42" y="18" width="248" height="8" rx="4" fill="#75858b" />
    </g>
    <g transform="translate(34 234)">
      <text class="mono" x="0" y="0">3</text>
      <text class="copy" x="42" y="0">Gemini 3.5 Flash</text>
      <text class="score" x="314" y="4">79.5</text>
      <rect x="42" y="18" width="300" height="8" rx="4" fill="#e4ebe4" />
      <rect x="42" y="18" width="238" height="8" rx="4" fill="#b27b4d" />
    </g>
    <g transform="translate(34 300)">
      <text class="mono" x="0" y="0">4</text>
      <text class="copy" x="42" y="0">GPT-5.4</text>
      <text class="score" x="314" y="4">78.4</text>
      <rect x="42" y="18" width="300" height="8" rx="4" fill="#e4ebe4" />
      <rect x="42" y="18" width="235" height="8" rx="4" fill="#9a7f5f" />
    </g>
    <text class="small" x="34" y="374">Scores shown are synthetic product data.</text>
  </g>
</svg>
